HIERARCHY
ROOT pelvis
{
  OFFSET 0 100 0
  CHANNELS 6 Xposition Yposition Zposition Zrotation Xrotation Yrotation
  JOINT pelvis_right_femur
  {
    OFFSET -10.78128 -3.44521 -0.5502486
    CHANNELS 3 Zrotation Xrotation Yrotation
    JOINT right_femur_tibia
    {
      OFFSET -0.8047443 -44.0398 -0.1307829
      CHANNELS 3 Zrotation Xrotation Yrotation
      JOINT right_tibia_foot
      {
        OFFSET 3.006224 -47.83518 -5
        CHANNELS 3 Zrotation Xrotation Yrotation
        End Site
        {
          OFFSET 0 -5 15
        }
      }
    }
  }
  JOINT pelvis_left_femur
  {
    OFFSET 10.78128 -3.44521 -0.5502486
    CHANNELS 3 Zrotation Xrotation Yrotation
    JOINT left_femur_tibia
    {
      OFFSET 0.8047443 -44.0398 -0.1307829
      CHANNELS 3 Zrotation Xrotation Yrotation
      JOINT left_tibia_foot
      {
        OFFSET -4.370144 -48.10324 -4.275266
        CHANNELS 3 Zrotation Xrotation Yrotation
        End Site
        {
          OFFSET 0 -5 15
        }
      }
    }
  }
  JOINT pelvis_spine1
  {
    OFFSET 0 6.468898 -3.129235
    CHANNELS 3 Zrotation Xrotation Yrotation
    JOINT spine1
    {
      OFFSET 0 23.15396 4.99043
      CHANNELS 3 Zrotation Xrotation Yrotation
      JOINT spine2
      {
        OFFSET 0 20.79997 -5.064912
        CHANNELS 3 Zrotation Xrotation Yrotation
        JOINT neck
        {
          OFFSET 0 14.38658 9.616178
          CHANNELS 3 Zrotation Xrotation Yrotation
          End Site
          {
            OFFSET 0 20 0
          }
        }
      }
      JOINT right_manubrium
      {
        OFFSET -5.722621 16.35077 3.967754
        CHANNELS 3 Zrotation Xrotation Yrotation
        JOINT right_clavicle
        {
          OFFSET -13.16364 1.694482 -4.693211
          CHANNELS 3 Zrotation Xrotation Yrotation
          JOINT right_humerus
          {
            OFFSET -28.5034 -0.3100689 -2.792744
            CHANNELS 3 Zrotation Xrotation Yrotation
            JOINT right_radius
            {
              OFFSET -25.15693 0.02248979 -1.271978
              CHANNELS 3 Zrotation Xrotation Yrotation
              End Site
              {
                OFFSET -15 0 0
              }
            }
          }
        }
      }
      JOINT left_manubrium
      {
        OFFSET 5.722621 16.35077 3.967754
        CHANNELS 3 Zrotation Xrotation Yrotation
        JOINT left_clavicle
        {
          OFFSET 13.16364 1.694482 -4.693211
          CHANNELS 3 Zrotation Xrotation Yrotation
          JOINT left_humerus
          {
            OFFSET 29.39168 -1.063119 -2.237045
            CHANNELS 3 Zrotation Xrotation Yrotation
            JOINT left_radius
            {
              OFFSET 24.59957 -0.9528479 0.9047498
              CHANNELS 3 Zrotation Xrotation Yrotation
              End Site
              {
                OFFSET 15 -0 -0
              }
            }
          }
        }
      }
    }
  }
}
MOTION
Frames: 17
Frame Time: 0.0416666666667
0 103.5113 0 2.176563 -1.222295 0.291489 1.247669 -10.04559 8.766705 -0 34.88918 -0 -5.286438 -18.00768 -2.449953 -8.026461 10.10075 -23.51532 -0 5.12312 -0 7.685558 -16.13656 26.57977 -4.325737 -5.061907 4.934601 1.999898 9.220566 -7.751351 0.8322182 22.8328 7.1745 3.249437 -23.09722 8.808129 6.379709 -19.7768 11.56759 86.30862 35.94309 -19.7776 -0 0 16.28366 -7.581665 8.243205 4.625514 5.461876 -19.46205 -1.711705 -94.79736 29.75963 22.96289 0 0 -15.91411 3.486523 17.90379 9.594268
0.3282797 103.5097 1.335816 2.002469 -1.121721 0.4777784 1.532005 -11.02922 8.68845 -0 34.90682 -0 -5.372724 -17.65441 -2.533194 -7.849274 10.23723 -23.40302 -0 5.154571 -0 7.553331 -16.39044 26.40377 -4.243537 -4.867112 4.849318 2.080764 9.194289 -7.794251 0.8447469 22.74134 7.195351 3.275262 -23.23056 8.828715 6.379122 -19.75491 11.55773 86.27958 35.91778 -19.79585 -0 0 16.2283 -7.629266 8.277536 4.661878 5.499529 -19.46929 -1.744223 -94.72974 29.73509 22.85367 0 0 -16.09941 3.522773 17.81311 9.620556
0.6880408 103.4652 2.769457 1.750919 -0.8923381 0.5322342 1.908735 -12.54524 8.452051 -0 33.69334 -0 -5.482201 -16.95083 -2.350603 -7.608132 10.38835 -23.1836 -0 5.247021 -0 7.344029 -16.804 26.10862 -4.162977 -4.558142 4.777395 2.256742 9.130945 -7.843237 0.8801933 22.53656 7.220107 3.334575 -23.44567 8.846732 6.363326 -19.69094 11.55413 86.2356 35.88433 -19.84453 -0 0 16.09935 -7.697346 8.332876 4.708253 5.635025 -19.49307 -1.787272 -94.62711 29.68636 22.60329 0 0 -16.52164 3.592322 17.6799 9.608277
1.1006 103.3129 4.376991 1.4735 -0.4815991 0.41543 2.2803 -14.50153 7.991687 -0 30.51501 -0 -5.584753 -15.74025 -1.761529 -7.387142 10.52654 -22.8111 -0 5.456956 -0 7.060799 -17.3994 25.66422 -4.12136 -4.152795 4.776543 2.519741 9.016672 -7.852772 0.9767392 22.19222 7.23055 3.446721 -23.74729 8.870128 6.299629 -19.53033 11.55598 86.2114 35.84211 -19.96406 -0 0 15.85827 -7.783495 8.412142 4.758312 5.891626 -19.57021 -1.826083 -94.46943 29.61861 22.15134 0 0 -17.25165 3.692328 17.50867 9.514196
1.562561 102.9689 6.195159 1.265169 0.06592389 0.2234913 2.497501 -16.63281 7.369538 -0 25.37192 -0 -5.655537 -14.01387 -0.8005249 -7.266344 10.66008 -22.26679 -0 5.864571 -0 6.705518 -18.1253 25.04236 -4.126777 -3.734297 4.881467 2.802471 8.875166 -7.763592 1.137303 21.79471 7.20777 3.595385 -24.08743 8.898254 6.16124 -19.24965 11.54665 86.25117 35.78767 -20.16737 -0 0 15.49787 -7.889591 8.516027 4.810923 6.259426 -19.75661 -1.819115 -94.2065 29.54704 21.48716 0 0 -18.22474 3.802058 17.30076 9.34153
2.068534 102.4064 8.272024 1.178046 0.7387919 0.03514069 2.514333 -18.64813 6.600513 -0 18.71023 -0 -5.69115 -11.95668 0.3951474 -7.273741 10.81862 -21.54537 -0 6.515282 -0 6.252894 -18.89404 24.19804 -4.180172 -3.380412 5.044595 3.022892 8.708787 -7.605533 1.320091 21.41867 7.165608 3.756343 -24.41007 8.916633 5.95074 -18.91726 11.50245 86.36305 35.72471 -20.39485 -0 0 15.05541 -8.019575 8.645048 4.877145 6.688273 -20.0267 -1.757249 -93.83806 29.45826 20.69569 0 0 -19.27814 3.912341 17.0559 9.139842
2.615013 101.6585 10.69166 1.19566 1.501731 -0.09794942 2.406627 -20.28116 5.717235 -0 11.35542 -0 -5.719491 -9.905228 1.651061 -7.377474 11.03338 -20.66165 -0 7.501902 -0 5.645626 -19.58729 23.08979 -4.232838 -3.134602 5.178879 3.140699 8.533115 -7.460267 1.469387 21.10879 7.135775 3.90541 -24.67087 8.913891 5.700501 -18.56534 11.40707 86.57601 35.65857 -20.63616 -0 0 14.54139 -8.165527 8.805678 4.962645 7.082481 -20.32144 -1.668379 -93.40324 29.33122 19.89754 0 0 -20.21421 4.010369 16.7686 8.975064
3.186758 100.7972 13.5617 1.235738 2.269475 -0.08074626 2.335823 -21.27259 4.841605 -0 4.472615 -0 -5.800595 -8.247521 2.79531 -7.481378 11.30939 -19.65437 -0 9.027004 -0 4.798107 -20.02472 21.68384 -4.181797 -3.010205 5.202412 3.173771 8.377546 -7.413262 1.544464 20.88017 7.142102 4.02289 -24.85283 8.884302 5.463651 -18.15671 11.26339 86.93644 35.59301 -20.95452 -0 0 13.92284 -8.313371 9.009477 5.063044 7.314984 -20.57596 -1.602304 -92.96392 29.15179 19.21833 0 0 -20.84218 4.071506 16.42966 8.904691
3.750347 99.95874 16.98066 1.186738 2.977483 0.2000845 2.433517 -21.33751 4.163652 0 -0.7172412 0 -6.02411 -7.185982 3.699207 -7.427635 11.5698 -18.5792 -0 11.3861 -0 3.617999 -19.90581 19.94204 -3.936723 -3.016681 5.081028 3.169475 8.219111 -7.508957 1.545989 20.70313 7.168554 4.101987 -24.98802 8.809974 5.288855 -17.69936 11.10254 87.40636 35.53389 -21.35864 -0 0 13.18939 -8.47529 9.261373 5.179185 7.288415 -20.70038 -1.599068 -92.59849 28.90876 18.79037 0 0 -21.03697 4.074543 16.03798 8.950992
4.287882 99.31439 20.9916 1.00442 3.622131 0.7582446 2.660771 -20.24556 3.748527 0 -3.566552 0 -6.450501 -6.652385 4.258208 -7.103749 11.64781 -17.4905 -0 14.82883 -0 2.060136 -18.84271 17.87003 -3.44261 -3.170525 4.828395 3.149209 8.044285 -7.732488 1.462744 20.56058 7.197708 4.121902 -25.07763 8.666203 5.186674 -17.20398 10.95661 87.93704 35.48537 -21.82531 -0 0 12.35414 -8.669621 9.561468 5.314067 6.991179 -20.65178 -1.664778 -92.37024 28.60196 18.67421 0 0 -20.79133 4.016375 15.60583 9.11093
4.805377 99.00759 25.56617 0.6927696 4.109368 1.471777 2.971843 -17.99675 3.596213 0 -4.320056 0 -7.054638 -6.56541 4.482488 -6.572411 11.30321 -16.42824 -0 19.63504 -0 0.2066299 -16.51585 15.61341 -2.69851 -3.442073 4.547784 3.110804 7.892449 -7.984919 1.298568 20.47096 7.209687 4.069926 -25.06404 8.437026 5.123207 -16.68585 10.87421 88.46622 35.45132 -22.27528 -0 0 11.48734 -8.918306 9.905423 5.483263 6.485128 -20.43239 -1.782978 -92.30785 28.2342 18.85211 0 0 -20.20091 3.90223 15.14648 9.356848
5.318288 99.11163 30.60749 0.3304655 4.234353 2.085682 3.333983 -14.75461 3.657883 0 -3.929172 0 -7.723242 -6.970969 4.501241 -6.055069 10.22731 -15.41255 -0 26.12497 -0 -1.706904 -12.83582 13.45172 -1.794943 -3.726897 4.437055 3.037324 7.851261 -8.090531 1.079179 20.48314 7.18099 3.952557 -24.86541 8.116145 5.068487 -16.17474 10.92868 88.91747 35.44016 -22.57566 -0 0 10.69523 -9.246234 10.28727 5.712686 5.870817 -20.09412 -1.920994 -92.38599 27.80836 19.2384 0 0 -19.43388 3.74399 14.67238 9.640357
5.833558 99.62928 35.95738 0.1281403 3.816374 2.275566 3.598295 -10.57667 3.781007 0 -3.46303 0 -8.301113 -8.017455 4.479395 -5.764224 8.057993 -14.44994 -0 34.41853 -0 -3.316486 -8.200882 11.6957 -0.9753174 -3.857167 4.725731 2.902908 8.004877 -7.866024 0.8363319 20.65205 7.090057 3.794121 -24.45418 7.698989 5.079133 -15.73095 11.19229 89.20737 35.46891 -22.57469 -0 0 10.05313 -9.680932 10.7025 6.02451 5.240599 -19.75702 -2.032177 -92.50041 27.33306 19.69575 0 0 -18.68406 3.570155 14.20256 9.902938
6.343573 100.4728 41.38504 0.2722608 2.853845 2.022009 3.553785 -5.42455 3.810296 0 -3.53713 0 -8.674071 -9.618955 4.53722 -5.667981 4.407323 -13.55094 -0 43.69494 -0 -4.349447 -3.650715 10.62049 -0.533737 -3.724562 5.465207 2.69896 8.339617 -7.325781 0.6349745 21.00838 6.907324 3.642615 -23.82706 7.196132 5.184495 -15.48532 11.62627 89.17072 35.55399 -22.1047 -0 0 9.664917 -10.28201 11.13267 6.448708 4.670329 -19.52121 -2.096299 -92.53428 26.82052 20.11656 0 0 -18.08307 3.421823 13.75359 10.09123
6.850801 101.5214 46.69142 0.8344375 1.476194 1.537449 3.057812 0.5460102 3.714764 0 -4.378177 0 -8.765113 -11.50435 4.741315 -5.658955 -0.7951544 -12.723 -0 52.55416 -0 -4.765897 -0.2090953 10.30356 -0.6330891 -3.345091 6.551912 2.422939 8.771975 -6.593225 0.5258456 21.54838 6.621755 3.534133 -22.99551 6.636955 5.339224 -15.56373 12.11338 88.65039 35.69424 -21.04371 -0 0 9.640521 -11.11778 11.54981 7.009986 4.240377 -19.42963 -2.084361 -92.41653 26.27429 20.4372 0 0 -17.72097 3.340407 13.33064 10.1696
7.374585 102.6627 51.77948 1.770186 -0.09230519 1.05706 2.091482 6.948546 3.569496 0 -5.94619 0 -8.532952 -13.36682 5.109065 -5.641213 -7.234752 -11.94597 -0 59.39695 -0 -4.646871 1.563765 10.67403 -1.247544 -2.831557 7.79318 2.066493 9.203264 -5.806703 0.5157893 22.22266 6.257334 3.473006 -21.99904 6.067813 5.439432 -16.02011 12.51934 87.5819 35.85325 -19.35706 -0 0 10.07393 -12.23999 11.92294 7.723656 4.027332 -19.45816 -1.959026 -92.14568 25.69599 20.65729 0 0 -17.62293 3.340522 12.92757 10.13711
7.920675 103.7428 56.61859 2.890688 -1.5516 0.7325704 0.830274 13.28358 3.455404 0 -7.983557 0 -7.993109 -15.04095 5.604448 -5.503006 -14.27283 -11.13083 -0 62.75596 -0 -4.098785 1.877927 11.6023 -2.155031 -2.333616 8.960184 1.616001 9.565331 -5.058302 0.5560371 22.91757 5.881291 3.425772 -20.92639 5.549041 5.364432 -16.78777 12.75868 86.0556 35.9546 -17.12844 -0 0 11.0268 -13.65756 12.22552 8.597633 4.065817 -19.50696 -1.713105 -91.80261 25.10381 20.86863 0 0 -17.68651 3.375331 12.53159 10.04738
